# xmcd
#
# Track frame offsets:
#	150
#	15609
#	30672
#	47185
#	60030
#	72061
#	84199
#	103435
#	119290
#	134951
#	156768
#
# Disc length: 2286 seconds
#
# Revision: 0
# Processed by: cddbd v1.5.1PL0 Copyright (c) Steve Scherf et al.
# Submitted via: dBpowerAMP V4.0
#
DISCID=8e08ec0b
DTITLE=The Burtschi Brothers and The Mike McClure Band - Self-Titled
DYEAR=2004
DGENRE=Country
TTITLE0=The Burtschi Brothers and The Mike McClure Band - Feeling We Used to Know
TTITLE1=The Burtschi Brothers and The Mike McClure Band - Hometown Blues
TTITLE2=The Burtschi Brothers and The Mike McClure Band - Queen of the Midnight
TTITLE3=The Burtschi Brothers and The Mike McClure Band - Low Down and Lonely
TTITLE4=The Burtschi Brothers and The Mike McClure Band - North Platte Blues
TTITLE5=The Burtschi Brothers and The Mike McClure Band - My Kind of Town
TTITLE6=The Burtschi Brothers and The Mike McClure Band - If You Loved Me Only
TTITLE7=The Burtschi Brothers and The Mike McClure Band - Country Boy
TTITLE8=The Burtschi Brothers and The Mike McClure Band - Burned
TTITLE9=The Burtschi Brothers and The Mike McClure Band - Via Dolorosa
TTITLE10=The Burtschi Brothers and The Mike McClure Band - Lost in the Dream
EXTD=
EXTT0=
EXTT1=
EXTT2=
EXTT3=
EXTT4=
EXTT5=
EXTT6=
EXTT7=
EXTT8=
EXTT9=
EXTT10=
PLAYORDER=
